<svg width="72" height="73" viewBox="0 0 72 73" fill="none" xmlns="http://www.w3.org/2000/svg">
<rect x="-0.00195312" y="0.111206" width="72" height="72" rx="16" fill="#F4FDF8"/>
<g clip-path="url(#clip0_1_3939)">
<path d="M38.7005 16.5748C38.2794 16.5748 37.9381 16.9161 37.9381 17.3373C37.9381 17.7584 38.2794 18.0997 38.7005 18.0997C47.1322 18.0997 53.9916 24.9594 53.9916 33.3907C53.9916 33.8119 54.3332 34.1532 54.754 34.1532C55.1751 34.1532 55.5164 33.8119 55.5164 33.3907C55.5164 24.1187 47.9729 16.5748 38.7005 16.5748Z" fill="#47C7EF"/>
<path d="M50.1676 34.1535C50.5887 34.1535 50.93 33.8119 50.93 33.3911C50.93 26.6475 45.4438 21.1613 38.7005 21.1613C38.2794 21.1613 37.9381 21.5029 37.9381 21.9237C37.9381 22.3449 38.2794 22.6862 38.7005 22.6862C44.6031 22.6862 49.4051 27.4882 49.4051 33.3911C49.4051 33.8119 49.7464 34.1535 50.1676 34.1535Z" fill="#47C7EF"/>
<path d="M44.8178 33.3907C44.8178 33.8115 45.1591 34.1531 45.5802 34.1531C46.0013 34.1531 46.3426 33.8115 46.3426 33.3907C46.3426 29.1768 42.9144 25.7486 38.7005 25.7486C38.2794 25.7486 37.9381 26.0899 37.9381 26.5107C37.9381 26.9318 38.2794 27.2731 38.7005 27.2731C42.0737 27.2731 44.8178 30.0173 44.8178 33.3907Z" fill="#3FD87D"/>
<path d="M37.9381 31.0974C37.9381 31.5183 38.2794 31.8596 38.7005 31.8596C39.5446 31.8596 40.2313 32.5463 40.2313 33.3907C40.2313 33.8115 40.5726 34.1531 40.9938 34.1531C41.4146 34.1531 41.7562 33.8115 41.7562 33.3907C41.7562 31.7056 40.3853 30.335 38.7005 30.335C38.2794 30.335 37.9381 30.6763 37.9381 31.0974Z" fill="#3FD87D"/>
<path d="M30.7696 41.3292C30.7696 41.7503 30.4283 42.0916 30.0072 42.0916C29.5861 42.0916 29.2448 41.7503 29.2448 41.3292C29.2448 40.9084 29.5861 40.5668 30.0072 40.5668C30.4283 40.5668 30.7696 40.9084 30.7696 41.3292Z" fill="#F6989A"/>
<path d="M37.3731 54.6853C40.8448 56.3868 45.0215 55.6789 47.7668 52.9335L49.3432 51.3572C50.1991 50.5021 50.1994 49.1169 49.3434 48.2613L43.2524 42.1709C42.3979 41.3152 41.0125 41.314 40.1571 42.1706L37.5691 44.7589C37.0622 45.2658 36.2798 45.3692 35.7092 45.0049C34.7788 44.4102 33.8737 43.7544 33.0192 43.0557C32.6931 42.7891 32.213 42.8374 31.9465 43.1632C31.6799 43.4893 31.7282 43.9697 32.054 44.2359C32.9543 44.9722 33.9076 45.6631 34.8884 46.2897C36.0573 47.0364 37.6382 46.8461 38.6472 45.837L41.2358 43.2484C41.4947 42.9893 41.914 42.9887 42.174 43.2487L48.2653 49.3394C48.5247 49.5991 48.5253 50.019 48.2653 50.2785L46.6887 51.8554C44.4017 54.1424 40.9279 54.7294 38.0441 53.3162C27.4795 48.1356 21.7315 39.9211 18.77 33.942C17.3532 31.0826 17.9414 27.622 20.2338 25.3302L21.7759 23.7884C22.0344 23.5293 22.454 23.5284 22.7137 23.7887L28.8057 29.8803C29.0636 30.138 29.0663 30.5579 28.8051 30.8185L26.217 33.4068C25.208 34.4159 25.0177 35.9967 25.7643 37.166C26.2042 37.8542 26.6783 38.5333 27.1739 39.184C27.4288 39.519 27.9071 39.5837 28.2422 39.3287C28.5772 39.0738 28.6422 38.5955 28.3869 38.2602C27.917 37.6428 27.4667 36.9983 27.0491 36.3452C26.6849 35.7742 26.7882 34.9919 27.2951 34.485L29.8829 31.8972C30.7385 31.0427 30.7394 29.657 29.8835 28.8019L23.7921 22.7109C22.938 21.8552 21.5522 21.854 20.6972 22.7106L19.1556 24.2521C16.4002 27.0067 15.6961 31.1729 17.4036 34.619C20.4702 40.8098 26.4237 49.3162 37.3731 54.6853Z" fill="#FFBC00"/>
</g>
<defs>
<clipPath id="clip0_1_3939">
<rect width="39.0361" height="39.0361" fill="white" transform="translate(16.4801 16.575)"/>
</clipPath>
</defs>
</svg>
