<svg width="72" height="73" viewBox="0 0 72 73" fill="none" xmlns="http://www.w3.org/2000/svg">
<rect x="-0.00195312" y="0.111206" width="72" height="72" rx="16" fill="#F4FDF8"/>
<g clip-path="url(#clip0_1_3921)">
<path d="M36.8045 38.6887C35.3461 38.6819 33.8973 38.4534 32.5076 38.0111C30.2872 37.2682 28.638 35.3885 28.1903 33.0903C27.7005 30.7309 28.5932 28.2362 30.639 26.246C30.8585 26.0322 31.0866 25.8274 31.3233 25.6316C33.418 23.8779 36.242 23.2685 38.8735 24.0022C41.4211 24.8154 43.1815 27.1436 43.2695 29.8164C43.3649 31.3549 42.8635 32.8709 41.8695 34.0491C41.1029 35.0148 39.8608 35.4709 38.6514 35.2309C38.1568 35.1282 37.7253 34.8287 37.4562 34.4012C37.2147 33.986 37.1528 33.4903 37.2847 33.0284C37.8536 30.8778 38.4321 27.6095 38.4378 27.5764C38.4782 27.3474 38.6377 27.1574 38.8562 27.078C39.0747 26.9985 39.319 27.0416 39.497 27.1911C39.6751 27.3405 39.7599 27.5737 39.7195 27.8026C39.6954 27.9386 39.1258 31.1579 38.5428 33.361C38.5012 33.4831 38.5117 33.6169 38.5717 33.7311C38.6617 33.8556 38.7974 33.9392 38.9491 33.9636C39.6894 34.0872 40.4372 33.7902 40.891 33.1923C41.6629 32.2689 42.0497 31.0838 41.971 29.8828C41.9074 27.7553 40.5123 25.8979 38.4868 25.244C36.2759 24.6359 33.9072 25.1554 32.1538 26.633C31.9447 26.8065 31.7414 26.9882 31.5464 27.1782C30.5349 28.162 28.9198 30.2035 29.4641 32.8254C29.8297 34.6572 31.138 36.1583 32.9026 36.771C35.9539 37.7443 40.3384 37.8615 42.6486 34.9891C42.8755 34.7158 43.2798 34.675 43.5567 34.8976C43.8337 35.1202 43.8808 35.5238 43.6626 35.8042C41.9543 37.9287 39.3548 38.6887 36.8045 38.6887Z" fill="#3FD87D"/>
<path d="M34.5758 35.316C33.8881 35.3278 33.2174 35.1023 32.6765 34.6774C31.4277 33.678 31.3934 31.9419 31.7435 30.7596C31.8614 30.3658 32.0197 29.9853 32.2159 29.6241C32.704 28.6392 33.4846 27.8291 34.4507 27.3048C35.6539 26.6805 37.124 26.9172 38.0703 27.8877C38.5398 28.4023 38.8934 29.0115 39.1074 29.6744C39.2207 30.0107 39.0434 30.3758 38.7091 30.4949C38.3747 30.614 38.0066 30.4431 37.8818 30.1109C37.7275 29.6211 37.4711 29.1697 37.1295 28.7864C36.5778 28.2222 35.7181 28.0938 35.0256 28.4722C34.301 28.8809 33.7187 29.5013 33.3568 30.2503C33.2047 30.5309 33.0819 30.8264 32.9902 31.1322C32.7374 31.9874 32.7929 33.1035 33.4906 33.6622C34.2533 34.2746 35.54 34.0157 36.2639 33.3912C36.8034 32.9055 37.267 32.3416 37.6391 31.7183C37.7596 31.5164 37.9797 31.3952 38.2147 31.4013C38.4498 31.4075 38.6633 31.54 38.7731 31.7479C38.8829 31.9558 38.8719 32.2068 38.7445 32.4044C38.3037 33.1389 37.7549 33.8028 37.1166 34.374C36.4052 34.9743 35.5066 35.3074 34.5758 35.316Z" fill="#3FD87D"/>
<path d="M53.5644 55.6113H18.4319C17.3544 55.6101 16.4813 54.7369 16.4801 53.6595V29.5872C16.4801 29.3349 16.626 29.1053 16.8544 28.9982C17.0828 28.891 17.3525 28.9256 17.5466 29.0869L33.5105 42.3543C34.9549 43.5472 37.0428 43.5468 38.4869 42.3534L54.4493 29.0869C54.6433 28.9253 54.9132 28.8905 55.1419 28.9977C55.3705 29.1049 55.5164 29.3347 55.5162 29.5872V53.6595C55.5151 54.7369 54.6419 55.6101 53.5644 55.6113ZM17.7813 30.9738V53.6595C17.7818 54.0186 18.0728 54.3096 18.4319 54.3101H53.5644C53.9236 54.3097 54.2147 54.0187 54.215 53.6595V30.9738L39.3176 43.3548C37.3914 44.9466 34.6064 44.947 32.6797 43.3557L17.7813 30.9738Z" fill="#FFBC00"/>
<path d="M17.1313 30.2385C16.848 30.2387 16.597 30.0555 16.5109 29.7856C16.4248 29.5156 16.5234 29.2209 16.7546 29.0571L22.61 24.9062C22.9032 24.703 23.3053 24.7738 23.5115 25.0648C23.7177 25.3558 23.6511 25.7586 23.3622 25.9679L17.5068 30.1187C17.3972 30.1967 17.2659 30.2386 17.1313 30.2385Z" fill="#FFBC00"/>
<path d="M54.8664 30.2385C54.7318 30.2386 54.6006 30.1967 54.4909 30.1187L48.6355 25.9679C48.3466 25.7586 48.28 25.3558 48.4863 25.0648C48.6925 24.7738 49.0946 24.703 49.3877 24.9062L55.2431 29.0571C55.4743 29.2209 55.5729 29.5156 55.4868 29.7856C55.4007 30.0555 55.1498 30.2387 54.8664 30.2385Z" fill="#FFBC00"/>
<path d="M42.0092 21.1292C41.8746 21.1292 41.7432 21.0874 41.6334 21.0094L38.5235 18.8039C37.0799 17.584 34.9704 17.5713 33.5122 18.7737L30.3633 21.0095C30.1736 21.144 29.9266 21.167 29.7153 21.0701C29.504 20.9731 29.3605 20.7707 29.3389 20.5392C29.3172 20.3077 29.4207 20.0823 29.6104 19.9478L32.7203 17.7423C34.6419 16.171 37.4079 16.1835 39.3153 17.7721L42.3861 19.9475C42.6175 20.1114 42.7162 20.4062 42.6301 20.6763C42.5439 20.9464 42.2928 21.1296 42.0092 21.1292Z" fill="#FFBC00"/>
<path d="M17.5549 55.2609C17.2807 55.2611 17.0358 55.0894 16.9425 54.8316C16.8492 54.5738 16.9276 54.2851 17.1385 54.1099L31.9853 41.7745C32.1637 41.6228 32.4098 41.5787 32.6298 41.659C32.8498 41.7393 33.0096 41.9316 33.0484 42.1626C33.0871 42.3935 32.9987 42.6275 32.8169 42.7751L17.9702 55.1105C17.8536 55.2077 17.7066 55.2609 17.5549 55.2609Z" fill="#FFBC00"/>
<path d="M54.4415 55.2608C54.2899 55.2609 54.143 55.2077 54.0266 55.1105L39.1799 42.7751C38.9981 42.6275 38.9097 42.3935 38.9484 42.1626C38.9871 41.9316 39.147 41.7393 39.367 41.659C39.587 41.5787 39.8331 41.6228 40.0115 41.7745L54.8579 54.1099C55.0688 54.2851 55.1471 54.5738 55.0539 54.8316C54.9606 55.0894 54.7157 55.2611 54.4415 55.2608Z" fill="#FFBC00"/>
<path d="M49.0103 35.1043C48.651 35.1043 48.3597 34.813 48.3597 34.4537V21.1345C48.3578 21.1481 48.3317 21.1297 48.2881 21.1294H23.7083C23.6796 21.1276 23.6514 21.1377 23.6303 21.1574L23.6368 34.4537C23.6368 34.813 23.3455 35.1043 22.9862 35.1043C22.6269 35.1043 22.3356 34.813 22.3356 34.4537V21.1294C22.3566 20.3915 22.9704 19.8097 23.7083 19.8282H48.2881C49.026 19.8098 49.6398 20.3916 49.6609 21.1294V34.4537C49.6609 34.813 49.3696 35.1043 49.0103 35.1043Z" fill="#47C7EF"/>
</g>
<defs>
<clipPath id="clip0_1_3921">
<rect width="39.0361" height="39.0361" fill="white" transform="translate(16.4801 16.575)"/>
</clipPath>
</defs>
</svg>
